<svg width="1001" height="496" xmlns="http://www.w3.org/2000/svg">

 <g>
  <title>background</title>
  <rect fill="none" id="canvas_background" height="402" width="582" y="-1" x="-1"/>
 </g>
 <g>
  <title>Layer 1</title>
  <g id="svg_1" opacity="0.29827">
   <path id="svg_2" stroke-linejoin="round" stroke-linecap="round" stroke-width="2" stroke="white" d="m1008.08,163.448l-564.898,-520.306l0,-390.332l-415.0724,-22.81c-3.2053,7.544 -23.74251,29.286 -20.53784,41.404c3.85824,14.494 23.26694,9.861 28.90584,19.187c6.5885,10.989 -4.7485,55.66 -8.1319,68.549c-6.4698,24.415 -21.24894,44.195 -25.52335,68.61c-7.18217,40.987 7.36005,37.72 34.90185,63.323c46.4168,43.185 9.2002,87.975 20.8934,138.704c9.497,41.345 50.9874,62.669 66.1824,104.012c11.753,31.841 27.897,39.978 52.946,63.264c-0.593,-14.137 -13.236,-55.838 10.507,-52.155c23.564,3.624 14.483,38.433 18.994,52.987c3.798,12.118 30.686,36.354 8.369,47.522c-7.42,3.683 -28.55,-10.989 -37.039,-14.91c5.995,18.712 2.197,38.136 11.694,56.016c11.337,21.325 23.564,13.128 38.582,24.7116c15.491,11.9399 13.83,25.6617 6.944,43.72c-7.182,18.8307 -14.601,15.9202 -3.205,38.61198c8.251,16.39461 22.258,37.18552 34.308,49.65982c7.004,7.247 14.602,8.9103 21.606,18.1768c5.817,7.7223 3.561,17.821 10.506,24.7706c11.871,11.9399 31.994,12.1182 41.372,27.7402c10.447,17.405 -1.424,30.533 29.322,28.929c1.603,34.81 8.191,66.352 7.835,101.161c17.154,6.831 44.873,-1.307 62.858,-4.931c17.867,24.117 40.956,7.366 61.375,20.495c8.904,5.702 7.063,19.959 12.465,24.948c11.1,10.217 19.29,3.802 33.062,7.366c10.209,2.614 18.103,10.098 27.837,12.831c9.2,2.554 24.337,-3.445 31.163,4.693c8.191,9.742 -5.521,27.562 6.826,35.403c10.268,6.534 24.988,-9.029 34.961,-6.772c11.633,2.673 44.991,33.147 53.183,43.185c9.319,11.465 18.698,32.85 23.979,47.581c8.251,23.048 7.123,34.334 24.158,51.205c10.862,10.752 0.534,11.524 18.222,14.672c11.574,2.079 26.888,-6.296 38.582,-7.603c24.337,-2.673 48.91,1.96 72.89,-2.614c22.319,-4.277 43.627,-11.287 66.538,-14.554c19.825,-2.851 54.73,-0.653 72.3,-10.098c19.05,-10.158 20.77,-33.147 -6.77,-28.869c-2.2,-14.672 7.6,-34.929 -3.32,-45.085c15.19,-20.791 20.71,-35.463 23.08,-60.888c1.07,-11.167 1.55,-23.523 7.07,-32.909c5.4,-9.267 20.59,-14.791 23.56,-22.751c4.57,-12.356 -2.73,-17.88 -8.31,-24.771c-3.56,-4.455 -13.71,-2.316 -16.62,-6.237c-5.4,-7.188 -0.06,-14.613 -3.03,-21.86c-8.66,-20.969 -18.99,-29.226 -25.52,-52.987c0.18,3.98 0.36,8.019 0.12,11.94"/>
  </g>
  <path id="svg_3" stroke-width="2" fill="none" stroke="white" d="m729.114,83.9394c-8.568,23.3816 11.5,31.5866 27.561,46.8676c4.759,4.529 5.213,12.01 0.204,16.535c-10.772,9.732 -51.615,-4.425 -49.025,8.403c2.676,13.249 37.207,31.786 38.764,33.054c13.666,11.133 18.117,39.375 10.59,54.859c-5.356,11.018 -40.866,7.304 -52.036,3.635c-73.148,-24.027 -40.187,-21.162 -122.355,-28.623c-6.29,-0.571 -12.882,-0.864 -18.923,0.98c-6.223,1.899 -6.025,9.689 -3.937,13.9c6.919,13.956 37.892,37.628 29.557,55.973c-2.558,5.629 -8.551,9.184 -11.25,14.747c-2.113,4.357 -1.879,9.502 -2.819,14.253"/>
  <path id="svg_4" fill="#4AF6CD" d="m573.5,326c3.59,0 6.5,-2.91 6.5,-6.5c0,-3.59 -2.91,-6.5 -6.5,-6.5c-3.59,0 -6.5,2.91 -6.5,6.5c0,3.59 2.91,6.5 6.5,6.5z" clip-rule="evenodd" fill-rule="evenodd"/>
  <path id="svg_5" fill="#4AF6CD" d="m661,363c1.657,0 3,-1.343 3,-3c0,-1.657 -1.343,-3 -3,-3c-1.657,0 -3,1.343 -3,3c0,1.657 1.343,3 3,3z" clip-rule="evenodd" fill-rule="evenodd"/>
  <path id="svg_6" fill="#4AF6CD" d="m725,471c1.657,0 3,-1.343 3,-3c0,-1.657 -1.343,-3 -3,-3c-1.657,0 -3,1.343 -3,3c0,1.657 1.343,3 3,3z" clip-rule="evenodd" fill-rule="evenodd"/>
  <path id="svg_7" fill="#4AF6CD" d="m365,228c1.657,0 3,-1.343 3,-3c0,-1.657 -1.343,-3 -3,-3c-1.657,0 -3,1.343 -3,3c0,1.657 1.343,3 3,3z" clip-rule="evenodd" fill-rule="evenodd"/>
  <path id="svg_8" fill="#4AF6CD" d="m729.5,91c3.59,0 6.5,-2.9101 6.5,-6.5c0,-3.5899 -2.91,-6.5 -6.5,-6.5c-3.59,0 -6.5,2.9101 -6.5,6.5c0,3.5899 2.91,6.5 6.5,6.5z" clip-rule="evenodd" fill-rule="evenodd"/>
  <path id="svg_9" fill="white" d="m398.41,310.976l-2.24,11.024l-1.952,0l-2.032,-9.232l-2.048,9.232l-1.904,0l-2.24,-11.024l1.488,0l1.776,9.696l2.128,-9.696l1.616,0l2.176,9.696l1.84,-9.696l1.392,0zm8.134,6.56c0,0.245 -0.01,0.496 -0.032,0.752l-5.376,0c0.064,0.928 0.299,1.611 0.704,2.048c0.406,0.437 0.928,0.656 1.568,0.656c0.406,0 0.779,-0.059 1.12,-0.176c0.342,-0.117 0.699,-0.304 1.072,-0.56l0.64,0.88c-0.896,0.704 -1.877,1.056 -2.944,1.056c-1.173,0 -2.09,-0.384 -2.752,-1.152c-0.65,-0.768 -0.976,-1.824 -0.976,-3.168c0,-0.875 0.139,-1.648 0.416,-2.32c0.288,-0.683 0.694,-1.216 1.216,-1.6c0.534,-0.384 1.158,-0.576 1.872,-0.576c1.12,0 1.979,0.368 2.576,1.104c0.598,0.736 0.896,1.755 0.896,3.056zm-1.456,-0.432c0,-0.832 -0.165,-1.467 -0.496,-1.904c-0.33,-0.437 -0.826,-0.656 -1.488,-0.656c-1.205,0 -1.861,0.885 -1.968,2.656l3.952,0l0,-0.096zm6.095,-3.728c0.576,0 1.093,0.08 1.552,0.24c0.459,0.16 0.896,0.4 1.312,0.72l-0.624,0.928c-0.384,-0.245 -0.752,-0.427 -1.104,-0.544c-0.341,-0.117 -0.704,-0.176 -1.088,-0.176c-0.48,0 -0.859,0.101 -1.136,0.304c-0.277,0.192 -0.416,0.459 -0.416,0.8c0,0.341 0.128,0.608 0.384,0.8c0.267,0.192 0.741,0.379 1.424,0.56c0.939,0.235 1.637,0.555 2.096,0.96c0.469,0.405 0.704,0.96 0.704,1.664c0,0.832 -0.325,1.467 -0.976,1.904c-0.64,0.437 -1.424,0.656 -2.352,0.656c-1.28,0 -2.341,-0.368 -3.184,-1.104l0.784,-0.896c0.715,0.544 1.504,0.816 2.368,0.816c0.555,0 0.992,-0.112 1.312,-0.336c0.331,-0.235 0.496,-0.549 0.496,-0.944c0,-0.288 -0.059,-0.517 -0.176,-0.688c-0.117,-0.181 -0.32,-0.336 -0.608,-0.464c-0.288,-0.139 -0.709,-0.283 -1.264,-0.432c-0.896,-0.235 -1.547,-0.549 -1.952,-0.944c-0.395,-0.395 -0.592,-0.896 -0.592,-1.504c0,-0.437 0.128,-0.832 0.384,-1.184c0.267,-0.363 0.629,-0.64 1.088,-0.832c0.469,-0.203 0.992,-0.304 1.568,-0.304zm9.437,8.24c-0.555,0.384 -1.184,0.576 -1.888,0.576c-0.715,0 -1.275,-0.203 -1.68,-0.608c-0.395,-0.416 -0.592,-1.013 -0.592,-1.792l0,-5.088l-1.472,0l0,-1.136l1.472,0l0,-1.904l1.472,-0.176l0,2.08l2,0l-0.16,1.136l-1.84,0l0,5.024c0,0.437 0.074,0.757 0.224,0.96c0.16,0.192 0.421,0.288 0.784,0.288c0.33,0 0.704,-0.112 1.12,-0.336l0.56,0.976zm8.559,-10.832c0.736,0 1.366,0.107 1.888,0.32c0.523,0.203 1.03,0.523 1.52,0.96l-0.832,0.928c-0.416,-0.331 -0.826,-0.571 -1.232,-0.72c-0.394,-0.16 -0.821,-0.24 -1.28,-0.24c-0.576,0 -1.05,0.133 -1.424,0.4c-0.373,0.267 -0.56,0.656 -0.56,1.168c0,0.32 0.064,0.592 0.192,0.816c0.128,0.213 0.363,0.411 0.704,0.592c0.352,0.181 0.859,0.373 1.52,0.576c0.694,0.213 1.27,0.443 1.728,0.688c0.459,0.245 0.827,0.587 1.104,1.024c0.288,0.427 0.432,0.971 0.432,1.632c0,0.64 -0.16,1.205 -0.48,1.696c-0.309,0.491 -0.762,0.875 -1.36,1.152c-0.586,0.277 -1.285,0.416 -2.096,0.416c-1.525,0 -2.773,-0.475 -3.744,-1.424l0.832,-0.928c0.448,0.363 0.902,0.64 1.36,0.832c0.459,0.181 0.971,0.272 1.536,0.272c0.683,0 1.248,-0.165 1.696,-0.496c0.448,-0.341 0.672,-0.832 0.672,-1.472c0,-0.363 -0.069,-0.661 -0.208,-0.896c-0.138,-0.245 -0.378,-0.464 -0.72,-0.656c-0.33,-0.192 -0.816,-0.384 -1.456,-0.576c-1.13,-0.341 -1.957,-0.752 -2.48,-1.232c-0.522,-0.48 -0.784,-1.131 -0.784,-1.952c0,-0.555 0.144,-1.051 0.432,-1.488c0.299,-0.437 0.71,-0.779 1.232,-1.024c0.534,-0.245 1.136,-0.368 1.808,-0.368zm9.887,2.592c0.768,0 1.365,0.229 1.792,0.688c0.437,0.459 0.656,1.088 0.656,1.888l0,6.048l-1.472,0l0,-5.84c0,-0.597 -0.117,-1.019 -0.352,-1.264c-0.224,-0.245 -0.555,-0.368 -0.992,-0.368c-0.437,0 -0.827,0.128 -1.168,0.384c-0.341,0.256 -0.661,0.619 -0.96,1.088l0,6l-1.472,0l0,-11.808l1.472,-0.16l0,4.704c0.661,-0.907 1.493,-1.36 2.496,-1.36zm8.575,0c1.184,0 2.101,0.395 2.752,1.184c0.661,0.789 0.992,1.861 0.992,3.216c0,0.875 -0.149,1.648 -0.448,2.32c-0.299,0.661 -0.731,1.179 -1.296,1.552c-0.565,0.363 -1.237,0.544 -2.016,0.544c-1.184,0 -2.107,-0.395 -2.768,-1.184c-0.661,-0.789 -0.992,-1.861 -0.992,-3.216c0,-0.875 0.149,-1.643 0.448,-2.304c0.299,-0.672 0.731,-1.189 1.296,-1.552c0.565,-0.373 1.243,-0.56 2.032,-0.56zm0,1.184c-1.461,0 -2.192,1.077 -2.192,3.232c0,2.144 0.725,3.216 2.176,3.216c1.451,0 2.176,-1.077 2.176,-3.232c0,-2.144 -0.72,-3.216 -2.16,-3.216zm9.84,-1.184c0.299,0 0.576,0.032 0.832,0.096l-0.272,1.44c-0.256,-0.064 -0.501,-0.096 -0.736,-0.096c-0.523,0 -0.944,0.192 -1.264,0.576c-0.32,0.384 -0.571,0.981 -0.752,1.792l0,4.816l-1.472,0l0,-8.432l1.264,0l0.144,1.712c0.224,-0.629 0.528,-1.104 0.912,-1.424c0.384,-0.32 0.832,-0.48 1.344,-0.48zm8.391,4.16c0,0.245 -0.01,0.496 -0.032,0.752l-5.376,0c0.064,0.928 0.299,1.611 0.704,2.048c0.406,0.437 0.928,0.656 1.568,0.656c0.406,0 0.779,-0.059 1.12,-0.176c0.342,-0.117 0.699,-0.304 1.072,-0.56l0.64,0.88c-0.896,0.704 -1.877,1.056 -2.944,1.056c-1.173,0 -2.09,-0.384 -2.752,-1.152c-0.65,-0.768 -0.976,-1.824 -0.976,-3.168c0,-0.875 0.139,-1.648 0.416,-2.32c0.288,-0.683 0.694,-1.216 1.216,-1.6c0.534,-0.384 1.158,-0.576 1.872,-0.576c1.12,0 1.979,0.368 2.576,1.104c0.598,0.736 0.896,1.755 0.896,3.056zm-1.456,-0.432c0,-0.832 -0.165,-1.467 -0.496,-1.904c-0.33,-0.437 -0.826,-0.656 -1.488,-0.656c-1.205,0 -1.861,0.885 -1.968,2.656l3.952,0l0,-0.096zm9.994,-7.92l0,14.384l-0.352,0l0,-14.384l0.352,0zm18.827,12.816l-1.472,0l-0.384,-4.976c-0.16,-1.952 -0.25,-3.451 -0.272,-4.496l-2.384,8.224l-1.424,0l-2.512,-8.24c0,1.333 -0.069,2.875 -0.208,4.624l-0.368,4.864l-1.44,0l0.912,-11.024l2.048,0l2.32,8.016l2.208,-8.016l2.064,0l0.912,11.024zm8.197,-1.968c0,0.341 0.059,0.597 0.176,0.768c0.118,0.16 0.294,0.283 0.528,0.368l-0.336,1.024c-0.437,-0.053 -0.789,-0.176 -1.056,-0.368c-0.266,-0.192 -0.464,-0.491 -0.592,-0.896c-0.565,0.843 -1.402,1.264 -2.512,1.264c-0.832,0 -1.488,-0.235 -1.968,-0.704c-0.48,-0.469 -0.72,-1.083 -0.72,-1.84c0,-0.896 0.32,-1.584 0.96,-2.064c0.651,-0.48 1.568,-0.72 2.752,-0.72l1.296,0l0,-0.624c0,-0.597 -0.144,-1.024 -0.432,-1.28c-0.288,-0.256 -0.73,-0.384 -1.328,-0.384c-0.618,0 -1.376,0.149 -2.272,0.448l-0.368,-1.072c1.046,-0.384 2.016,-0.576 2.912,-0.576c0.992,0 1.734,0.245 2.224,0.736c0.491,0.48 0.736,1.168 0.736,2.064l0,3.856zm-3.456,1.056c0.843,0 1.504,-0.437 1.984,-1.312l0,-1.936l-1.104,0c-1.557,0 -2.336,0.576 -2.336,1.728c0,0.501 0.123,0.88 0.368,1.136c0.246,0.256 0.608,0.384 1.088,0.384zm8.003,1.104c-0.544,0 -0.976,-0.16 -1.296,-0.48c-0.309,-0.331 -0.464,-0.789 -0.464,-1.376l0,-10.16l1.472,-0.176l0,10.304c0,0.235 0.038,0.405 0.112,0.512c0.086,0.107 0.224,0.16 0.416,0.16c0.203,0 0.384,-0.032 0.544,-0.096l0.384,1.024c-0.352,0.192 -0.741,0.288 -1.168,0.288zm4.48,-8.624l0,8.432l-1.472,0l0,-8.432l1.472,0zm-0.752,-4.048c0.309,0 0.56,0.096 0.752,0.288c0.192,0.192 0.288,0.432 0.288,0.72c0,0.288 -0.096,0.528 -0.288,0.72c-0.192,0.181 -0.443,0.272 -0.752,0.272c-0.299,0 -0.544,-0.091 -0.736,-0.272c-0.192,-0.192 -0.288,-0.432 -0.288,-0.72c0,-0.288 0.096,-0.528 0.288,-0.72c0.192,-0.192 0.437,-0.288 0.736,-0.288zm7.651,3.856c0.96,0 1.723,0.389 2.288,1.168c0.566,0.768 0.848,1.845 0.848,3.232c0,0.875 -0.133,1.648 -0.4,2.32c-0.266,0.661 -0.65,1.179 -1.152,1.552c-0.501,0.363 -1.088,0.544 -1.76,0.544c-0.885,0 -1.632,-0.373 -2.24,-1.12l-0.144,0.928l-1.296,0l0,-11.824l1.472,-0.176l0,4.624c0.608,-0.832 1.403,-1.248 2.384,-1.248zm-0.528,7.648c0.651,0 1.158,-0.261 1.52,-0.784c0.374,-0.533 0.56,-1.355 0.56,-2.464c0,-1.141 -0.17,-1.963 -0.512,-2.464c-0.341,-0.512 -0.826,-0.768 -1.456,-0.768c-0.746,0 -1.402,0.437 -1.968,1.312l0,4.032c0.224,0.352 0.496,0.629 0.816,0.832c0.331,0.203 0.678,0.304 1.04,0.304zm12.444,0.976l-1.264,0l-0.112,-1.312c-0.32,0.523 -0.688,0.907 -1.104,1.152c-0.416,0.235 -0.922,0.352 -1.52,0.352c-0.736,0 -1.312,-0.224 -1.728,-0.672c-0.416,-0.448 -0.624,-1.083 -0.624,-1.904l0,-6.048l1.472,0l0,5.888c0,0.576 0.102,0.987 0.304,1.232c0.203,0.235 0.534,0.352 0.992,0.352c0.822,0 1.526,-0.485 2.112,-1.456l0,-6.016l1.472,0l0,8.432zm3.425,-2.032c0.32,0 0.587,0.107 0.8,0.32c0.213,0.213 0.32,0.475 0.32,0.784c0,0.331 -0.096,0.709 -0.288,1.136l-1.072,2.448l-1.056,0l0.64,-2.656c-0.139,-0.107 -0.251,-0.24 -0.336,-0.4c-0.075,-0.16 -0.112,-0.336 -0.112,-0.528c0,-0.309 0.107,-0.571 0.32,-0.784c0.213,-0.213 0.475,-0.32 0.784,-0.32zm11.63,-9.184c0.661,0 1.216,0.085 1.664,0.256c0.459,0.171 0.923,0.448 1.392,0.832l-0.832,0.976c-0.672,-0.544 -1.381,-0.816 -2.128,-0.816c-0.917,0 -1.659,0.352 -2.224,1.056c-0.555,0.704 -0.832,1.835 -0.832,3.392c0,1.515 0.277,2.635 0.832,3.36c0.555,0.715 1.291,1.072 2.208,1.072c0.469,0 0.88,-0.08 1.232,-0.24c0.352,-0.16 0.725,-0.384 1.12,-0.672l0.752,0.96c-0.341,0.352 -0.779,0.645 -1.312,0.88c-0.533,0.235 -1.147,0.352 -1.84,0.352c-0.896,0 -1.696,-0.219 -2.4,-0.656c-0.693,-0.448 -1.237,-1.099 -1.632,-1.952c-0.384,-0.864 -0.576,-1.899 -0.576,-3.104c0,-1.205 0.203,-2.235 0.608,-3.088c0.405,-0.864 0.955,-1.515 1.648,-1.952c0.693,-0.437 1.467,-0.656 2.32,-0.656zm10.969,11.216l-0.832,-2.768l-4.176,0l-0.832,2.768l-1.536,0l3.536,-11.024l1.92,0l3.52,11.024l-1.6,0zm-4.64,-4l3.44,0l-1.712,-5.76l-1.728,5.76z"/>
  <path id="svg_10" fill="white" d="m598.378,75.784c0.661,0 1.216,0.0853 1.664,0.256c0.459,0.1707 0.923,0.448 1.392,0.832l-0.832,0.976c-0.672,-0.544 -1.381,-0.816 -2.128,-0.816c-0.917,0 -1.659,0.352 -2.224,1.056c-0.555,0.704 -0.832,1.8347 -0.832,3.392c0,1.5147 0.277,2.6347 0.832,3.36c0.555,0.7147 1.291,1.072 2.208,1.072c0.469,0 0.88,-0.08 1.232,-0.24c0.352,-0.16 0.725,-0.384 1.12,-0.672l0.752,0.96c-0.341,0.352 -0.779,0.6453 -1.312,0.88c-0.533,0.2347 -1.147,0.352 -1.84,0.352c-0.896,0 -1.696,-0.2187 -2.4,-0.656c-0.693,-0.448 -1.237,-1.0987 -1.632,-1.952c-0.384,-0.864 -0.576,-1.8987 -0.576,-3.104c0,-1.2053 0.203,-2.2347 0.608,-3.088c0.405,-0.864 0.955,-1.5147 1.648,-1.952c0.693,-0.4373 1.467,-0.656 2.32,-0.656zm11.023,11.216l-1.264,0l-0.112,-1.312c-0.32,0.5227 -0.688,0.9067 -1.104,1.152c-0.416,0.2347 -0.922,0.352 -1.52,0.352c-0.736,0 -1.312,-0.224 -1.728,-0.672c-0.416,-0.448 -0.624,-1.0827 -0.624,-1.904l0,-6.048l1.472,0l0,5.888c0,0.576 0.102,0.9867 0.304,1.232c0.203,0.2347 0.534,0.352 0.992,0.352c0.822,0 1.526,-0.4853 2.112,-1.456l0,-6.016l1.472,0l0,8.432zm6.705,-8.624c0.299,0 0.576,0.032 0.832,0.096l-0.272,1.44c-0.256,-0.064 -0.501,-0.096 -0.736,-0.096c-0.523,0 -0.944,0.192 -1.264,0.576c-0.32,0.384 -0.571,0.9813 -0.752,1.792l0,4.816l-1.472,0l0,-8.432l1.264,0l0.144,1.712c0.224,-0.6293 0.528,-1.104 0.912,-1.424c0.384,-0.32 0.832,-0.48 1.344,-0.48zm6.172,0c0.298,0 0.576,0.032 0.832,0.096l-0.272,1.44c-0.256,-0.064 -0.502,-0.096 -0.736,-0.096c-0.523,0 -0.944,0.192 -1.264,0.576c-0.32,0.384 -0.571,0.9813 -0.752,1.792l0,4.816l-1.472,0l0,-8.432l1.264,0l0.144,1.712c0.224,-0.6293 0.528,-1.104 0.912,-1.424c0.384,-0.32 0.832,-0.48 1.344,-0.48zm8.391,4.16c0,0.2453 -0.01,0.496 -0.032,0.752l-5.376,0c0.064,0.928 0.299,1.6107 0.704,2.048c0.406,0.4373 0.928,0.656 1.568,0.656c0.406,0 0.779,-0.0587 1.12,-0.176c0.342,-0.1173 0.699,-0.304 1.072,-0.56l0.64,0.88c-0.896,0.704 -1.877,1.056 -2.944,1.056c-1.173,0 -2.09,-0.384 -2.752,-1.152c-0.65,-0.768 -0.976,-1.824 -0.976,-3.168c0,-0.8747 0.139,-1.648 0.416,-2.32c0.288,-0.6827 0.694,-1.216 1.216,-1.6c0.534,-0.384 1.158,-0.576 1.872,-0.576c1.12,0 1.979,0.368 2.576,1.104c0.598,0.736 0.896,1.7547 0.896,3.056zm-1.456,-0.432c0,-0.832 -0.165,-1.4667 -0.496,-1.904c-0.33,-0.4373 -0.826,-0.656 -1.488,-0.656c-1.205,0 -1.861,0.8853 -1.968,2.656l3.952,0l0,-0.096zm7.775,-3.728c0.768,0 1.365,0.2293 1.792,0.688c0.437,0.4587 0.656,1.088 0.656,1.888l0,6.048l-1.472,0l0,-5.84c0,-0.5973 -0.112,-1.0187 -0.336,-1.264c-0.224,-0.2453 -0.555,-0.368 -0.992,-0.368c-0.448,0 -0.843,0.128 -1.184,0.384c-0.341,0.256 -0.661,0.624 -0.96,1.104l0,5.984l-1.472,0l0,-8.432l1.264,0l0.128,1.248c0.299,-0.448 0.667,-0.8 1.104,-1.056c0.448,-0.256 0.939,-0.384 1.472,-0.384zm9.663,8.24c-0.555,0.384 -1.184,0.576 -1.888,0.576c-0.715,0 -1.275,-0.2027 -1.68,-0.608c-0.395,-0.416 -0.592,-1.0133 -0.592,-1.792l0,-5.088l-1.472,0l0,-1.136l1.472,0l0,-1.904l1.472,-0.176l0,2.08l2,0l-0.16,1.136l-1.84,0l0,5.024c0,0.4373 0.075,0.7573 0.224,0.96c0.16,0.192 0.421,0.288 0.784,0.288c0.331,0 0.704,-0.112 1.12,-0.336l0.56,0.976zm7.36,-10.64l0,9.696l4.528,0l-0.176,1.328l-5.872,0l0,-11.024l1.52,0zm9.13,2.4c1.184,0 2.101,0.3947 2.752,1.184c0.661,0.7893 0.992,1.8613 0.992,3.216c0,0.8747 -0.149,1.648 -0.448,2.32c-0.299,0.6613 -0.731,1.1787 -1.296,1.552c-0.565,0.3627 -1.237,0.544 -2.016,0.544c-1.184,0 -2.107,-0.3947 -2.768,-1.184c-0.661,-0.7893 -0.992,-1.8613 -0.992,-3.216c0,-0.8747 0.149,-1.6427 0.448,-2.304c0.299,-0.672 0.731,-1.1893 1.296,-1.552c0.565,-0.3733 1.243,-0.56 2.032,-0.56zm0,1.184c-1.461,0 -2.192,1.0773 -2.192,3.232c0,2.144 0.725,3.216 2.176,3.216c1.451,0 2.176,-1.0773 2.176,-3.232c0,-2.144 -0.72,-3.216 -2.16,-3.216zm9.248,-1.184c0.501,0 0.96,0.0747 1.376,0.224c0.416,0.1387 0.816,0.368 1.2,0.688l-0.704,0.928c-0.299,-0.2133 -0.592,-0.368 -0.88,-0.464c-0.277,-0.1067 -0.587,-0.16 -0.928,-0.16c-0.683,0 -1.216,0.272 -1.6,0.816c-0.373,0.544 -0.56,1.3493 -0.56,2.416c0,1.0667 0.187,1.856 0.56,2.368c0.373,0.5013 0.907,0.752 1.6,0.752c0.331,0 0.635,-0.048 0.912,-0.144c0.277,-0.1067 0.587,-0.272 0.928,-0.496l0.672,0.96c-0.768,0.6187 -1.627,0.928 -2.576,0.928c-1.141,0 -2.043,-0.384 -2.704,-1.152c-0.651,-0.768 -0.976,-1.8293 -0.976,-3.184c0,-0.896 0.149,-1.68 0.448,-2.352c0.299,-0.672 0.72,-1.1947 1.264,-1.568c0.555,-0.3733 1.211,-0.56 1.968,-0.56zm10.092,6.656c0,0.3413 0.059,0.5973 0.176,0.768c0.118,0.16 0.294,0.2827 0.528,0.368l-0.336,1.024c-0.437,-0.0533 -0.789,-0.176 -1.056,-0.368c-0.266,-0.192 -0.464,-0.4907 -0.592,-0.896c-0.565,0.8427 -1.402,1.264 -2.512,1.264c-0.832,0 -1.488,-0.2347 -1.968,-0.704c-0.48,-0.4693 -0.72,-1.0827 -0.72,-1.84c0,-0.896 0.32,-1.584 0.96,-2.064c0.651,-0.48 1.568,-0.72 2.752,-0.72l1.296,0l0,-0.624c0,-0.5973 -0.144,-1.024 -0.432,-1.28c-0.288,-0.256 -0.73,-0.384 -1.328,-0.384c-0.618,0 -1.376,0.1493 -2.272,0.448l-0.368,-1.072c1.046,-0.384 2.016,-0.576 2.912,-0.576c0.992,0 1.734,0.2453 2.224,0.736c0.491,0.48 0.736,1.168 0.736,2.064l0,3.856zm-3.456,1.056c0.843,0 1.504,-0.4373 1.984,-1.312l0,-1.936l-1.104,0c-1.557,0 -2.336,0.576 -2.336,1.728c0,0.5013 0.123,0.88 0.368,1.136c0.246,0.256 0.608,0.384 1.088,0.384zm10.735,0.528c-0.554,0.384 -1.184,0.576 -1.888,0.576c-0.714,0 -1.274,-0.2027 -1.68,-0.608c-0.394,-0.416 -0.592,-1.0133 -0.592,-1.792l0,-5.088l-1.472,0l0,-1.136l1.472,0l0,-1.904l1.472,-0.176l0,2.08l2,0l-0.16,1.136l-1.84,0l0,5.024c0,0.4373 0.075,0.7573 0.224,0.96c0.16,0.192 0.422,0.288 0.784,0.288c0.331,0 0.704,-0.112 1.12,-0.336l0.56,0.976zm2.998,-8.048l0,8.432l-1.472,0l0,-8.432l1.472,0zm-0.752,-4.048c0.309,0 0.56,0.096 0.752,0.288c0.192,0.192 0.288,0.432 0.288,0.72c0,0.288 -0.096,0.528 -0.288,0.72c-0.192,0.1813 -0.443,0.272 -0.752,0.272c-0.299,0 -0.544,-0.0907 -0.736,-0.272c-0.192,-0.192 -0.288,-0.432 -0.288,-0.72c0,-0.288 0.096,-0.528 0.288,-0.72c0.192,-0.192 0.437,-0.288 0.736,-0.288zm6.963,3.856c1.184,0 2.102,0.3947 2.752,1.184c0.662,0.7893 0.992,1.8613 0.992,3.216c0,0.8747 -0.149,1.648 -0.448,2.32c-0.298,0.6613 -0.73,1.1787 -1.296,1.552c-0.565,0.3627 -1.237,0.544 -2.016,0.544c-1.184,0 -2.106,-0.3947 -2.768,-1.184c-0.661,-0.7893 -0.992,-1.8613 -0.992,-3.216c0,-0.8747 0.15,-1.6427 0.448,-2.304c0.299,-0.672 0.731,-1.1893 1.296,-1.552c0.566,-0.3733 1.243,-0.56 2.032,-0.56zm0,1.184c-1.461,0 -2.192,1.0773 -2.192,3.232c0,2.144 0.726,3.216 2.176,3.216c1.451,0 2.176,-1.0773 2.176,-3.232c0,-2.144 -0.72,-3.216 -2.16,-3.216zm10.144,-1.184c0.768,0 1.365,0.2293 1.792,0.688c0.437,0.4587 0.656,1.088 0.656,1.888l0,6.048l-1.472,0l0,-5.84c0,-0.5973 -0.112,-1.0187 -0.336,-1.264c-0.224,-0.2453 -0.555,-0.368 -0.992,-0.368c-0.448,0 -0.843,0.128 -1.184,0.384c-0.341,0.256 -0.661,0.624 -0.96,1.104l0,5.984l-1.472,0l0,-8.432l1.264,0l0.128,1.248c0.299,-0.448 0.667,-0.8 1.104,-1.056c0.448,-0.256 0.939,-0.384 1.472,-0.384z"/>
  <path id="svg_11" stroke-width="2" stroke="white" fill="none" d="m367.98645,224.658386c0,0 0.717377,-0.255112 1.333282,0c0.871033,0.360779 1.333282,0.666641 1.999939,0.666641c0.666626,0 1.333282,0 1.999908,0c0.666656,0 1.999939,0 3.333221,0c0.666626,0 0.666626,0.666641 1.999908,0.666641c0.666656,0 1.999939,0 2.666565,0c1.333313,0 3.333221,0 3.999878,0c1.333282,0 1.999908,0 3.999847,0c1.333282,0 1.999908,0 3.999847,0c1.999939,0 2.666565,0 7.333069,0c3.333191,0 10.66626,0 13.999481,0c5.33313,0 13.332855,0 18.665985,0c5.33313,0 8.809753,0.426117 13.332825,-1.333282c2.778503,-1.080795 6.314636,-2.314774 9.333008,-5.33313c3.018341,-3.018341 8.567108,-9.656509 9.999634,-12.666199c1.181274,-2.481842 1.805634,-6.027679 2.666565,-11.332916c0.544495,-3.355316 2.081635,-9.320221 2.666565,-13.33284c1.550568,-10.636856 2.332581,-17.30159 2.666565,-22.665833c0.33139,-5.322845 0.074677,-10.752304 1.333282,-17.332703c0.911713,-4.766815 1.999939,-7.99971 3.999847,-11.999557c1.333282,-2.666565 1.285339,-4.407196 2.666565,-5.999779c1.953339,-2.252251 4.683014,-2.626015 7.999725,-3.999847c4.690521,-1.942879 7.291718,-2.998756 11.332916,-3.333214c2.657471,-0.21994 6.666412,-1.999924 12.666199,-1.999924c4.666504,0 10.808899,-1.225304 15.99939,0c5.803101,1.369926 8.816223,2.807899 11.999573,3.999847c5.033386,1.884651 8.243469,5.970093 14.666138,7.333069c3.912659,0.830322 8.542358,1.699219 11.999573,2.666565c3.905029,1.092636 8.694214,2.157364 13.332825,2.666565c6.109436,0.670639 11.979919,3.464508 15.99939,3.999863c6.641052,0.884506 12.666199,1.333282 18.666016,1.333282c1.999878,0 8.666321,0 11.999512,0c4.666504,0 7.999756,0 12.666199,0c5.33313,0 8.035461,0.722565 15.332764,0c3.38269,-0.334946 6.722717,-2.350113 11.332947,-3.333221c4.746521,-1.012161 7.061829,-2.983582 12.666199,-3.999847c2.623779,-0.475784 7.951477,-0.821121 11.999573,-1.999924c5.278015,-1.536964 9.200195,-2.946487 15.99939,-5.999779c3.274902,-1.47065 10.68457,-3.969627 13.999512,-5.999779c5.36322,-3.284576 7.018494,-4.745377 7.333069,-5.333138c1.134155,-2.119171 2.324036,-1.882423 2.666565,-3.333214c0.306335,-1.297615 2.5495,-2.065163 3.333191,-3.333206c1.401917,-2.268318 0.666626,-3.999855 0.666626,-4.666496c0,-1.333282 0,-1.999924 0,-2.666573c0,-0.666641 0.942749,-1.723793 0,-2.666565c-0.471375,-0.471375 0.276123,-1.057152 -0.666626,-1.999924c-0.471375,-0.471375 -1.333313,0 -1.999939,-0.666641l0,-1.33329l-0.666626,0" />
  <path id="svg_13" stroke-width="2" stroke="white" fill="none" d="m663.97552,359.3201c0,0 1.33332,0 2.66657,0c1.33331,0 3.99988,0 9.33301,0c10.66626,0 24.66577,0 44.66504,0c23.99908,0 54.17608,0.80551 73.99725,-3.99985c14.14984,-3.43042 28.18732,-10.65628 30.66553,-14.66614c4.43316,-7.17306 3.84118,-12.76089 2.66656,-19.99926c-0.67535,-4.16178 -3.8963,-13.37659 -11.33288,-20.6659c-9.14514,-8.96405 -21.38971,-13.88656 -33.3321,-19.99926c-14.06805,-7.20072 -26.45849,-11.89966 -44.66503,-23.33246c-10.9618,-6.88347 -20.55939,-14.93483 -27.99897,-25.99906c-6.50702,-9.67726 -8.99621,-17.20863 -9.99963,-29.33226c-0.54987,-6.64369 -0.98749,-12.27592 1.33325,-18.66597c2.85144,-7.85125 12.14148,-17.39804 19.33264,-21.99919c7.53382,-4.82036 17.86866,-6.09076 27.33234,-7.33307c13.2359,-1.7375 28.67688,-0.74486 43.99835,-1.33328c17.37109,-0.66713 35.01288,-2.73062 49.33154,-7.33307c13.08387,-4.20555 21.82001,-12.85562 25.3324,-15.9994c3.1806,-2.84681 6.9989,-10.63076 7.33307,-15.33278c0.33081,-4.65474 0.57831,-9.38353 0,-12.66619c-1.35382,-7.68451 -7.68634,-13.32709 -11.99957,-18.66598c-4.45337,-5.51236 -10.46741,-9.05255 -16.66602,-11.99956c-3.24225,-1.54146 -8.52832,-3.14201 -14.66614,-4.6665c-3.93548,-0.97747 -8.52655,-1.99341 -13.33288,-2.66656c-5.28156,-0.73972 -10.66626,0 -13.99945,0c-7.9997,0 -15.33978,-0.07329 -22.66583,0.66664c-6.00611,0.60662 -12.65064,2.11968 -17.33271,2.66657c-7.3136,0.85426 -13.59655,3.40306 -18.66595,5.99977c-2.13928,1.09582 -3.52851,1.52856 -3.99988,1.99994c-0.47137,0.47139 -0.4115,0.71738 -0.66663,1.33328c-0.36077,0.871 -1.07818,0.71738 -1.33331,1.33328c-0.36078,0.871 -1.52856,0.86189 -1.99994,1.33328c-0.47137,0.47138 -0.66662,1.33329 -0.66662,1.99994l-1.33326,0l-0.66668,0" />
  <path id="svg_15" stroke-opacity="null" stroke-width="1.5" stroke="white" fill="none" d="m728.215942,465.517609c0,0 1.000305,0 2.000549,0c3.000916,0 11.961975,-3.245209 23.006836,-5.001465c21.934631,-3.487823 47.048828,-6.830933 72.021362,-12.003571c28.048767,-5.809814 58.293945,-18.645264 74.021973,-31.009186c17.318665,-13.614349 23.936707,-26.045441 32.00946,-41.012177c5.950073,-11.031311 9.434082,-27.12677 12.003601,-38.011261c2.06842,-8.76181 1.000244,-21.006226 1.000244,-31.009186c0,-10.00296 -4.967529,-29.031525 -7.002075,-32.009491c-6.888,-10.081848 -12.921082,-17.922577 -19.005615,-24.007126c-6.084534,-6.084564 -18.00531,-14.004135 -24.007141,-18.005341c-9.002625,-6.001755 -21.537781,-14.735748 -29.008545,-19.00563c-8.553284,-4.888626 -24.162292,-10.572662 -33.009827,-14.00415c-9.18512,-3.562439 -17.196167,-7.281235 -26.00769,-10.002975c-10.293701,-3.17955 -21.034851,-12.940109 -30.008911,-17.005035c-13.046082,-5.909393 -20.745911,-11.497879 -28.008301,-15.004456c-9.701843,-4.684433 -21.651001,-9.573669 -31.009216,-15.00444c-7.738281,-4.490692 -14.723328,-8.312698 -18.00531,-11.003265c-2.789185,-2.286575 -6.00177,-4.001175 -11.003296,-9.00267c-4.00116,-4.001175 -6.226074,-7.905159 -7.002075,-10.002968c-1.430908,-3.868141 -1.000244,-7.002075 -1.000244,-8.002373c0,-3.000893 0,-5.001488 0,-6.001785c0,-3.000885 -0.382813,-4.077324 0,-5.00148c0.541321,-1.306923 1.026978,-1.770775 2.000549,-2.000595c2.176941,-0.513893 3.000916,-2.000587 5.001526,-2.000587c1.000244,0 3.077026,0.382797 4.00116,0c1.306946,-0.541359 2.00061,-1.000298 3.000916,-1.000298c1.000244,0 2.008057,0.122223 3.000854,0c4.093445,-0.503922 5.001465,-1.000298 6.00177,-1.000298c4.001221,0 6.00177,0 10.002991,0c2.00061,0 4.00116,0 5.001465,0c1.000305,0 2.00061,0 3.000916,0l1.000305,0" />
 </g>
</svg>